User Type,Username,Date,Text
[V],RosaMannen,2009-12-06T23:06Z,Wow nice :)
,bitslicker,2009-12-08T00:33Z,"cuesheet for chapter support. can be remuxed using mkvtoolnix...

PERFORMER ""Pet Shop Boys""
TITLE ""Live at Roskilde 2009""
FILE ""pet.shop.boys.roskilde.2009-division.mkv"" mkv
  TRACK 01 AUDIO
    TITLE ""Heart""
    INDEX 01 00:00:00
  TRACK 02 AUDIO
    TITLE ""Did you see me coming?""
    INDEX 01 04:15:00
  TRACK 03 AUDIO
    TITLE ""Love Etc.""
    INDEX 01 07:53:10
  TRACK 04 AUDIO
    TITLE ""Go West""
    INDEX 01 11:05:30
  TRACK 05 AUDIO
    TITLE ""Always on My Mind""
    INDEX 01 15:03:00
  TRACK 06 AUDIO
    TITLE ""Suburbia""
    INDEX 01 18:40:30
  TRACK 07 AUDIO
    TITLE ""Se A Vida Ă""
    INDEX 01 23:55:00
  TRACK 08 AUDIO
    TITLE ""Viva La Vida""
    INDEX 01 27:20:00
  TRACK 09 AUDIO
    TITLE ""It's a Sin""
    INDEX 01 29:54:00
  TRACK 10 AUDIO
    TITLE ""Being Boring""
    INDEX 01 34:54:00
  TRACK 11 AUDIO
    TITLE ""West End Girls""
    INDEX 01 40:19:50"
,kostekdm,2009-12-31T16:41Z,"BEST PERFORMANCE 2009 !!!!!
BEST Live 2009 !!!
for everyone !!
thanks for this  bi20 - BIG THANKS

PS.
i'm Massive Attack big fan :)"
,intobearzz,2010-01-08T05:10Z,"thankz for this Bi20! This concert is fuckin hot! Great Quality and sound amazing! 
totally V-10 A-10 no doubt! 
Also thanks for the others like Cirque Du Soleil. 
KC .............Los Angeles"
[T],bi20,2010-01-30T02:25Z,thanks intobearzz!
[V],prashant22,2010-08-03T17:36Z,"could u plz upload ""wimbledon 2010 final""...around 3gb....plz..plz..it would be great..."
